<svg width="100" height="25" viewBox="0 0 100 25" fill="none" xmlns="http://www.w3.org/2000/svg">
<g clip-path="url(#clip0_5_23)">
<path d="M42.8945 24H38.6699V15.373H30.7539V24H26.5156V4.01172H30.7539V11.8457H38.6699V4.01172H42.8945V24ZM59.5556 16.3301C59.5556 17.6061 59.3824 18.7363 59.0361 19.7207C58.6989 20.7051 58.2021 21.5391 57.5459 22.2227C56.8987 22.8971 56.1149 23.4076 55.1943 23.7539C54.2828 24.1003 53.2529 24.2734 52.1045 24.2734C51.0289 24.2734 50.04 24.1003 49.1377 23.7539C48.2444 23.4076 47.4651 22.8971 46.7998 22.2227C46.1435 21.5391 45.6331 20.7051 45.2685 19.7207C44.913 18.7363 44.7353 17.6061 44.7353 16.3301C44.7353 14.6348 45.0361 13.1992 45.6377 12.0234C46.2392 10.8477 47.096 9.95443 48.208 9.34375C49.3199 8.73307 50.6461 8.42773 52.1865 8.42773C53.6175 8.42773 54.8844 8.73307 55.9873 9.34375C57.0992 9.95443 57.9697 10.8477 58.5986 12.0234C59.2366 13.1992 59.5556 14.6348 59.5556 16.3301ZM48.9873 16.3301C48.9873 17.3327 49.0966 18.1758 49.3154 18.8594C49.5341 19.543 49.8759 20.0579 50.3408 20.4043C50.8056 20.7507 51.4117 20.9238 52.1591 20.9238C52.8974 20.9238 53.4944 20.7507 53.9502 20.4043C54.415 20.0579 54.7522 19.543 54.9619 18.8594C55.1806 18.1758 55.29 17.3327 55.29 16.3301C55.29 15.3184 55.1806 14.4798 54.9619 13.8145C54.7522 13.14 54.415 12.6341 53.9502 12.2969C53.4853 11.9596 52.8792 11.791 52.1318 11.791C51.0289 11.791 50.2268 12.1693 49.7255 12.9258C49.2334 13.6823 48.9873 14.8171 48.9873 16.3301ZM79.2721 8.42773C81.0039 8.42773 82.3118 8.87435 83.1959 9.76758C84.0892 10.6517 84.5358 12.0736 84.5358 14.0332V24H80.3522V15.0723C80.3522 13.9785 80.1653 13.1536 79.7916 12.5977C79.4179 12.0417 78.8392 11.7637 78.0553 11.7637C76.9524 11.7637 76.1686 12.1602 75.7038 12.9531C75.2389 13.737 75.0065 14.8626 75.0065 16.3301V24H70.8366V15.0723C70.8366 14.3431 70.7545 13.7324 70.5905 13.2402C70.4264 12.748 70.1758 12.3789 69.8385 12.1328C69.5013 11.8867 69.0683 11.7637 68.5397 11.7637C67.7649 11.7637 67.1543 11.9596 66.7077 12.3516C66.2702 12.7344 65.9557 13.304 65.7643 14.0605C65.582 14.8079 65.4909 15.724 65.4909 16.8086V24H61.3209V8.71484H64.5065L65.067 10.6699H65.2995C65.6093 10.1413 65.9967 9.71289 66.4616 9.38477C66.9355 9.05664 67.4551 8.8151 68.0202 8.66016C68.5853 8.50521 69.1595 8.42773 69.7428 8.42773C70.8639 8.42773 71.8118 8.61003 72.5866 8.97461C73.3704 9.33919 73.972 9.9043 74.3913 10.6699H74.7604C75.2161 9.88607 75.8587 9.31641 76.6881 8.96094C77.5267 8.60547 78.388 8.42773 79.2721 8.42773ZM93.1715 8.42773C94.5842 8.42773 95.801 8.70117 96.8219 9.24805C97.8427 9.78581 98.6311 10.5697 99.1871 11.5996C99.7431 12.6296 100.021 13.8874 100.021 15.373V17.3965H90.1637C90.2092 18.5723 90.5602 19.4974 91.2164 20.1719C91.8818 20.8372 92.8023 21.1699 93.9781 21.1699C94.9534 21.1699 95.8466 21.0697 96.6578 20.8691C97.469 20.6686 98.303 20.3678 99.1598 19.9668V23.1934C98.4033 23.5671 97.6103 23.8405 96.7809 24.0137C95.9605 24.1868 94.9625 24.2734 93.7867 24.2734C92.2555 24.2734 90.8974 23.9909 89.7125 23.4258C88.5367 22.8607 87.6116 21.9993 86.9371 20.8418C86.2717 19.6842 85.9391 18.2259 85.9391 16.4668C85.9391 14.6803 86.2398 13.1947 86.8414 12.0098C87.4521 10.8158 88.2997 9.92253 89.3844 9.33008C90.469 8.72852 91.7314 8.42773 93.1715 8.42773ZM93.1988 11.3945C92.3876 11.3945 91.7132 11.6543 91.1754 12.1738C90.6467 12.6934 90.3414 13.5091 90.2594 14.6211H96.1109C96.1018 14.0013 95.9879 13.4499 95.7691 12.9668C95.5595 12.4837 95.2405 12.1009 94.8121 11.8184C94.3928 11.5358 93.8551 11.3945 93.1988 11.3945Z" fill="#006AFF"/>
<path fill-rule="evenodd" clip-rule="evenodd" d="M0 24V8.5L4.57604 4.61037C4.32722 6.73815 3.83655 9.63336 3.10402 13.296C2.82669 14.8107 2.15469 17.616 1.08802 21.712C0.853356 22.6293 0.736023 23.2587 0.736023 23.6C0.736023 23.7211 0.766581 23.8544 0.827696 24H0ZM3.86409 24H10.6717C10.7675 23.3558 11.0076 22.4652 11.392 21.328C12.5227 18.0213 13.088 15.792 13.088 14.64C13.088 14.256 12.992 13.936 12.8 13.68C12.608 13.424 12.3734 13.296 12.096 13.296C11.8187 13.296 11.4774 13.4453 11.072 13.744C10.6667 14.0427 10.176 14.5653 9.60002 15.312C8.87469 16.272 8.11736 17.3493 7.32802 18.544C6.56002 19.7387 6.09069 20.464 5.92002 20.72C5.77069 20.9547 5.49336 21.392 5.08802 22.032L4.22402 23.472C4.11724 23.6381 3.99727 23.8141 3.86409 24ZM12.9888 24H19V8.5L10 0L7.2392 2.34668C7.42642 2.74096 7.52002 3.12674 7.52002 3.504C7.52002 4.89067 7.16802 7.25867 6.46402 10.608C5.78136 13.936 4.88536 17.264 3.77602 20.592C5.90936 16.7307 7.69069 13.9467 9.12002 12.24C10.5707 10.512 11.808 9.648 12.832 9.648C13.3867 9.648 14.0267 10.128 14.752 11.088C15.4987 12.048 15.872 13.008 15.872 13.968C15.872 14.928 15.6054 16.368 15.072 18.288C14.3557 20.899 13.6613 22.803 12.9888 24Z" fill="#006AFF"/>
<path fill-rule="evenodd" clip-rule="evenodd" d="M7.23921 2.34668L4.57605 4.61037C4.70404 3.51585 4.76803 2.62439 4.76803 1.936C4.76803 1.104 5.02403 0.688 5.53603 0.688C5.94137 0.688 6.36803 1.008 6.81603 1.648C6.98895 1.88379 7.13001 2.11668 7.23921 2.34668Z" fill="#006AFF"/>
</g>
<defs>
<clipPath id="clip0_5_23">
<rect width="100" height="25" fill="white"/>
</clipPath>
</defs>
</svg>
